%TF.GenerationSoftware,KiCad,Pcbnew,9.0.4*%
%TF.CreationDate,2025-09-11T21:53:48-07:00*%
%TF.ProjectId,STM32 PCB design,53544d33-3220-4504-9342-206465736967,rev?*%
%TF.SameCoordinates,Original*%
%TF.FileFunction,Legend,Top*%
%TF.FilePolarity,Positive*%
%FSLAX46Y46*%
G04 Gerber Fmt 4.6, Leading zero omitted, Abs format (unit mm)*
G04 Created by KiCad (PCBNEW 9.0.4) date 2025-09-11 21:53:48*
%MOMM*%
%LPD*%
G01*
G04 APERTURE LIST*
%ADD10C,0.150000*%
%ADD11C,0.120000*%
G04 APERTURE END LIST*
D10*
X121833333Y-72359580D02*
X121785714Y-72407200D01*
X121785714Y-72407200D02*
X121642857Y-72454819D01*
X121642857Y-72454819D02*
X121547619Y-72454819D01*
X121547619Y-72454819D02*
X121404762Y-72407200D01*
X121404762Y-72407200D02*
X121309524Y-72311961D01*
X121309524Y-72311961D02*
X121261905Y-72216723D01*
X121261905Y-72216723D02*
X121214286Y-72026247D01*
X121214286Y-72026247D02*
X121214286Y-71883390D01*
X121214286Y-71883390D02*
X121261905Y-71692914D01*
X121261905Y-71692914D02*
X121309524Y-71597676D01*
X121309524Y-71597676D02*
X121404762Y-71502438D01*
X121404762Y-71502438D02*
X121547619Y-71454819D01*
X121547619Y-71454819D02*
X121642857Y-71454819D01*
X121642857Y-71454819D02*
X121785714Y-71502438D01*
X121785714Y-71502438D02*
X121833333Y-71550057D01*
X122785714Y-72454819D02*
X122214286Y-72454819D01*
X122500000Y-72454819D02*
X122500000Y-71454819D01*
X122500000Y-71454819D02*
X122404762Y-71597676D01*
X122404762Y-71597676D02*
X122309524Y-71692914D01*
X122309524Y-71692914D02*
X122214286Y-71740533D01*
X139833333Y-91199580D02*
X139785714Y-91247200D01*
X139785714Y-91247200D02*
X139642857Y-91294819D01*
X139642857Y-91294819D02*
X139547619Y-91294819D01*
X139547619Y-91294819D02*
X139404762Y-91247200D01*
X139404762Y-91247200D02*
X139309524Y-91151961D01*
X139309524Y-91151961D02*
X139261905Y-91056723D01*
X139261905Y-91056723D02*
X139214286Y-90866247D01*
X139214286Y-90866247D02*
X139214286Y-90723390D01*
X139214286Y-90723390D02*
X139261905Y-90532914D01*
X139261905Y-90532914D02*
X139309524Y-90437676D01*
X139309524Y-90437676D02*
X139404762Y-90342438D01*
X139404762Y-90342438D02*
X139547619Y-90294819D01*
X139547619Y-90294819D02*
X139642857Y-90294819D01*
X139642857Y-90294819D02*
X139785714Y-90342438D01*
X139785714Y-90342438D02*
X139833333Y-90390057D01*
X140166667Y-90294819D02*
X140833333Y-90294819D01*
X140833333Y-90294819D02*
X140404762Y-91294819D01*
X127833333Y-85519580D02*
X127785714Y-85567200D01*
X127785714Y-85567200D02*
X127642857Y-85614819D01*
X127642857Y-85614819D02*
X127547619Y-85614819D01*
X127547619Y-85614819D02*
X127404762Y-85567200D01*
X127404762Y-85567200D02*
X127309524Y-85471961D01*
X127309524Y-85471961D02*
X127261905Y-85376723D01*
X127261905Y-85376723D02*
X127214286Y-85186247D01*
X127214286Y-85186247D02*
X127214286Y-85043390D01*
X127214286Y-85043390D02*
X127261905Y-84852914D01*
X127261905Y-84852914D02*
X127309524Y-84757676D01*
X127309524Y-84757676D02*
X127404762Y-84662438D01*
X127404762Y-84662438D02*
X127547619Y-84614819D01*
X127547619Y-84614819D02*
X127642857Y-84614819D01*
X127642857Y-84614819D02*
X127785714Y-84662438D01*
X127785714Y-84662438D02*
X127833333Y-84710057D01*
X128738095Y-84614819D02*
X128261905Y-84614819D01*
X128261905Y-84614819D02*
X128214286Y-85091009D01*
X128214286Y-85091009D02*
X128261905Y-85043390D01*
X128261905Y-85043390D02*
X128357143Y-84995771D01*
X128357143Y-84995771D02*
X128595238Y-84995771D01*
X128595238Y-84995771D02*
X128690476Y-85043390D01*
X128690476Y-85043390D02*
X128738095Y-85091009D01*
X128738095Y-85091009D02*
X128785714Y-85186247D01*
X128785714Y-85186247D02*
X128785714Y-85424342D01*
X128785714Y-85424342D02*
X128738095Y-85519580D01*
X128738095Y-85519580D02*
X128690476Y-85567200D01*
X128690476Y-85567200D02*
X128595238Y-85614819D01*
X128595238Y-85614819D02*
X128357143Y-85614819D01*
X128357143Y-85614819D02*
X128261905Y-85567200D01*
X128261905Y-85567200D02*
X128214286Y-85519580D01*
X125833333Y-82359580D02*
X125785714Y-82407200D01*
X125785714Y-82407200D02*
X125642857Y-82454819D01*
X125642857Y-82454819D02*
X125547619Y-82454819D01*
X125547619Y-82454819D02*
X125404762Y-82407200D01*
X125404762Y-82407200D02*
X125309524Y-82311961D01*
X125309524Y-82311961D02*
X125261905Y-82216723D01*
X125261905Y-82216723D02*
X125214286Y-82026247D01*
X125214286Y-82026247D02*
X125214286Y-81883390D01*
X125214286Y-81883390D02*
X125261905Y-81692914D01*
X125261905Y-81692914D02*
X125309524Y-81597676D01*
X125309524Y-81597676D02*
X125404762Y-81502438D01*
X125404762Y-81502438D02*
X125547619Y-81454819D01*
X125547619Y-81454819D02*
X125642857Y-81454819D01*
X125642857Y-81454819D02*
X125785714Y-81502438D01*
X125785714Y-81502438D02*
X125833333Y-81550057D01*
X126690476Y-81454819D02*
X126500000Y-81454819D01*
X126500000Y-81454819D02*
X126404762Y-81502438D01*
X126404762Y-81502438D02*
X126357143Y-81550057D01*
X126357143Y-81550057D02*
X126261905Y-81692914D01*
X126261905Y-81692914D02*
X126214286Y-81883390D01*
X126214286Y-81883390D02*
X126214286Y-82264342D01*
X126214286Y-82264342D02*
X126261905Y-82359580D01*
X126261905Y-82359580D02*
X126309524Y-82407200D01*
X126309524Y-82407200D02*
X126404762Y-82454819D01*
X126404762Y-82454819D02*
X126595238Y-82454819D01*
X126595238Y-82454819D02*
X126690476Y-82407200D01*
X126690476Y-82407200D02*
X126738095Y-82359580D01*
X126738095Y-82359580D02*
X126785714Y-82264342D01*
X126785714Y-82264342D02*
X126785714Y-82026247D01*
X126785714Y-82026247D02*
X126738095Y-81931009D01*
X126738095Y-81931009D02*
X126690476Y-81883390D01*
X126690476Y-81883390D02*
X126595238Y-81835771D01*
X126595238Y-81835771D02*
X126404762Y-81835771D01*
X126404762Y-81835771D02*
X126309524Y-81883390D01*
X126309524Y-81883390D02*
X126261905Y-81931009D01*
X126261905Y-81931009D02*
X126214286Y-82026247D01*
X121833333Y-65359580D02*
X121785714Y-65407200D01*
X121785714Y-65407200D02*
X121642857Y-65454819D01*
X121642857Y-65454819D02*
X121547619Y-65454819D01*
X121547619Y-65454819D02*
X121404762Y-65407200D01*
X121404762Y-65407200D02*
X121309524Y-65311961D01*
X121309524Y-65311961D02*
X121261905Y-65216723D01*
X121261905Y-65216723D02*
X121214286Y-65026247D01*
X121214286Y-65026247D02*
X121214286Y-64883390D01*
X121214286Y-64883390D02*
X121261905Y-64692914D01*
X121261905Y-64692914D02*
X121309524Y-64597676D01*
X121309524Y-64597676D02*
X121404762Y-64502438D01*
X121404762Y-64502438D02*
X121547619Y-64454819D01*
X121547619Y-64454819D02*
X121642857Y-64454819D01*
X121642857Y-64454819D02*
X121785714Y-64502438D01*
X121785714Y-64502438D02*
X121833333Y-64550057D01*
X122166667Y-64454819D02*
X122785714Y-64454819D01*
X122785714Y-64454819D02*
X122452381Y-64835771D01*
X122452381Y-64835771D02*
X122595238Y-64835771D01*
X122595238Y-64835771D02*
X122690476Y-64883390D01*
X122690476Y-64883390D02*
X122738095Y-64931009D01*
X122738095Y-64931009D02*
X122785714Y-65026247D01*
X122785714Y-65026247D02*
X122785714Y-65264342D01*
X122785714Y-65264342D02*
X122738095Y-65359580D01*
X122738095Y-65359580D02*
X122690476Y-65407200D01*
X122690476Y-65407200D02*
X122595238Y-65454819D01*
X122595238Y-65454819D02*
X122309524Y-65454819D01*
X122309524Y-65454819D02*
X122214286Y-65407200D01*
X122214286Y-65407200D02*
X122166667Y-65359580D01*
X131379166Y-81501009D02*
X131045833Y-81501009D01*
X131045833Y-82024819D02*
X131045833Y-81024819D01*
X131045833Y-81024819D02*
X131522023Y-81024819D01*
X132236309Y-81501009D02*
X132379166Y-81548628D01*
X132379166Y-81548628D02*
X132426785Y-81596247D01*
X132426785Y-81596247D02*
X132474404Y-81691485D01*
X132474404Y-81691485D02*
X132474404Y-81834342D01*
X132474404Y-81834342D02*
X132426785Y-81929580D01*
X132426785Y-81929580D02*
X132379166Y-81977200D01*
X132379166Y-81977200D02*
X132283928Y-82024819D01*
X132283928Y-82024819D02*
X131902976Y-82024819D01*
X131902976Y-82024819D02*
X131902976Y-81024819D01*
X131902976Y-81024819D02*
X132236309Y-81024819D01*
X132236309Y-81024819D02*
X132331547Y-81072438D01*
X132331547Y-81072438D02*
X132379166Y-81120057D01*
X132379166Y-81120057D02*
X132426785Y-81215295D01*
X132426785Y-81215295D02*
X132426785Y-81310533D01*
X132426785Y-81310533D02*
X132379166Y-81405771D01*
X132379166Y-81405771D02*
X132331547Y-81453390D01*
X132331547Y-81453390D02*
X132236309Y-81501009D01*
X132236309Y-81501009D02*
X131902976Y-81501009D01*
X133426785Y-82024819D02*
X132855357Y-82024819D01*
X133141071Y-82024819D02*
X133141071Y-81024819D01*
X133141071Y-81024819D02*
X133045833Y-81167676D01*
X133045833Y-81167676D02*
X132950595Y-81262914D01*
X132950595Y-81262914D02*
X132855357Y-81310533D01*
X133833333Y-72359580D02*
X133785714Y-72407200D01*
X133785714Y-72407200D02*
X133642857Y-72454819D01*
X133642857Y-72454819D02*
X133547619Y-72454819D01*
X133547619Y-72454819D02*
X133404762Y-72407200D01*
X133404762Y-72407200D02*
X133309524Y-72311961D01*
X133309524Y-72311961D02*
X133261905Y-72216723D01*
X133261905Y-72216723D02*
X133214286Y-72026247D01*
X133214286Y-72026247D02*
X133214286Y-71883390D01*
X133214286Y-71883390D02*
X133261905Y-71692914D01*
X133261905Y-71692914D02*
X133309524Y-71597676D01*
X133309524Y-71597676D02*
X133404762Y-71502438D01*
X133404762Y-71502438D02*
X133547619Y-71454819D01*
X133547619Y-71454819D02*
X133642857Y-71454819D01*
X133642857Y-71454819D02*
X133785714Y-71502438D01*
X133785714Y-71502438D02*
X133833333Y-71550057D01*
X134690476Y-71788152D02*
X134690476Y-72454819D01*
X134452381Y-71407200D02*
X134214286Y-72121485D01*
X134214286Y-72121485D02*
X134833333Y-72121485D01*
X152407142Y-90359580D02*
X152359523Y-90407200D01*
X152359523Y-90407200D02*
X152216666Y-90454819D01*
X152216666Y-90454819D02*
X152121428Y-90454819D01*
X152121428Y-90454819D02*
X151978571Y-90407200D01*
X151978571Y-90407200D02*
X151883333Y-90311961D01*
X151883333Y-90311961D02*
X151835714Y-90216723D01*
X151835714Y-90216723D02*
X151788095Y-90026247D01*
X151788095Y-90026247D02*
X151788095Y-89883390D01*
X151788095Y-89883390D02*
X151835714Y-89692914D01*
X151835714Y-89692914D02*
X151883333Y-89597676D01*
X151883333Y-89597676D02*
X151978571Y-89502438D01*
X151978571Y-89502438D02*
X152121428Y-89454819D01*
X152121428Y-89454819D02*
X152216666Y-89454819D01*
X152216666Y-89454819D02*
X152359523Y-89502438D01*
X152359523Y-89502438D02*
X152407142Y-89550057D01*
X153359523Y-90454819D02*
X152788095Y-90454819D01*
X153073809Y-90454819D02*
X153073809Y-89454819D01*
X153073809Y-89454819D02*
X152978571Y-89597676D01*
X152978571Y-89597676D02*
X152883333Y-89692914D01*
X152883333Y-89692914D02*
X152788095Y-89740533D01*
X154311904Y-90454819D02*
X153740476Y-90454819D01*
X154026190Y-90454819D02*
X154026190Y-89454819D01*
X154026190Y-89454819D02*
X153930952Y-89597676D01*
X153930952Y-89597676D02*
X153835714Y-89692914D01*
X153835714Y-89692914D02*
X153740476Y-89740533D01*
X131454819Y-87333333D02*
X132169104Y-87333333D01*
X132169104Y-87333333D02*
X132311961Y-87380952D01*
X132311961Y-87380952D02*
X132407200Y-87476190D01*
X132407200Y-87476190D02*
X132454819Y-87619047D01*
X132454819Y-87619047D02*
X132454819Y-87714285D01*
X131788152Y-86428571D02*
X132454819Y-86428571D01*
X131407200Y-86666666D02*
X132121485Y-86904761D01*
X132121485Y-86904761D02*
X132121485Y-86285714D01*
X135833333Y-93624819D02*
X135500000Y-93148628D01*
X135261905Y-93624819D02*
X135261905Y-92624819D01*
X135261905Y-92624819D02*
X135642857Y-92624819D01*
X135642857Y-92624819D02*
X135738095Y-92672438D01*
X135738095Y-92672438D02*
X135785714Y-92720057D01*
X135785714Y-92720057D02*
X135833333Y-92815295D01*
X135833333Y-92815295D02*
X135833333Y-92958152D01*
X135833333Y-92958152D02*
X135785714Y-93053390D01*
X135785714Y-93053390D02*
X135738095Y-93101009D01*
X135738095Y-93101009D02*
X135642857Y-93148628D01*
X135642857Y-93148628D02*
X135261905Y-93148628D01*
X136738095Y-92624819D02*
X136261905Y-92624819D01*
X136261905Y-92624819D02*
X136214286Y-93101009D01*
X136214286Y-93101009D02*
X136261905Y-93053390D01*
X136261905Y-93053390D02*
X136357143Y-93005771D01*
X136357143Y-93005771D02*
X136595238Y-93005771D01*
X136595238Y-93005771D02*
X136690476Y-93053390D01*
X136690476Y-93053390D02*
X136738095Y-93101009D01*
X136738095Y-93101009D02*
X136785714Y-93196247D01*
X136785714Y-93196247D02*
X136785714Y-93434342D01*
X136785714Y-93434342D02*
X136738095Y-93529580D01*
X136738095Y-93529580D02*
X136690476Y-93577200D01*
X136690476Y-93577200D02*
X136595238Y-93624819D01*
X136595238Y-93624819D02*
X136357143Y-93624819D01*
X136357143Y-93624819D02*
X136261905Y-93577200D01*
X136261905Y-93577200D02*
X136214286Y-93529580D01*
X118523809Y-77978628D02*
X118523809Y-78454819D01*
X118190476Y-77454819D02*
X118523809Y-77978628D01*
X118523809Y-77978628D02*
X118857142Y-77454819D01*
X119714285Y-78454819D02*
X119142857Y-78454819D01*
X119428571Y-78454819D02*
X119428571Y-77454819D01*
X119428571Y-77454819D02*
X119333333Y-77597676D01*
X119333333Y-77597676D02*
X119238095Y-77692914D01*
X119238095Y-77692914D02*
X119142857Y-77740533D01*
X121357142Y-85359580D02*
X121309523Y-85407200D01*
X121309523Y-85407200D02*
X121166666Y-85454819D01*
X121166666Y-85454819D02*
X121071428Y-85454819D01*
X121071428Y-85454819D02*
X120928571Y-85407200D01*
X120928571Y-85407200D02*
X120833333Y-85311961D01*
X120833333Y-85311961D02*
X120785714Y-85216723D01*
X120785714Y-85216723D02*
X120738095Y-85026247D01*
X120738095Y-85026247D02*
X120738095Y-84883390D01*
X120738095Y-84883390D02*
X120785714Y-84692914D01*
X120785714Y-84692914D02*
X120833333Y-84597676D01*
X120833333Y-84597676D02*
X120928571Y-84502438D01*
X120928571Y-84502438D02*
X121071428Y-84454819D01*
X121071428Y-84454819D02*
X121166666Y-84454819D01*
X121166666Y-84454819D02*
X121309523Y-84502438D01*
X121309523Y-84502438D02*
X121357142Y-84550057D01*
X122309523Y-85454819D02*
X121738095Y-85454819D01*
X122023809Y-85454819D02*
X122023809Y-84454819D01*
X122023809Y-84454819D02*
X121928571Y-84597676D01*
X121928571Y-84597676D02*
X121833333Y-84692914D01*
X121833333Y-84692914D02*
X121738095Y-84740533D01*
X122928571Y-84454819D02*
X123023809Y-84454819D01*
X123023809Y-84454819D02*
X123119047Y-84502438D01*
X123119047Y-84502438D02*
X123166666Y-84550057D01*
X123166666Y-84550057D02*
X123214285Y-84645295D01*
X123214285Y-84645295D02*
X123261904Y-84835771D01*
X123261904Y-84835771D02*
X123261904Y-85073866D01*
X123261904Y-85073866D02*
X123214285Y-85264342D01*
X123214285Y-85264342D02*
X123166666Y-85359580D01*
X123166666Y-85359580D02*
X123119047Y-85407200D01*
X123119047Y-85407200D02*
X123023809Y-85454819D01*
X123023809Y-85454819D02*
X122928571Y-85454819D01*
X122928571Y-85454819D02*
X122833333Y-85407200D01*
X122833333Y-85407200D02*
X122785714Y-85359580D01*
X122785714Y-85359580D02*
X122738095Y-85264342D01*
X122738095Y-85264342D02*
X122690476Y-85073866D01*
X122690476Y-85073866D02*
X122690476Y-84835771D01*
X122690476Y-84835771D02*
X122738095Y-84645295D01*
X122738095Y-84645295D02*
X122785714Y-84550057D01*
X122785714Y-84550057D02*
X122833333Y-84502438D01*
X122833333Y-84502438D02*
X122928571Y-84454819D01*
X153284819Y-77656666D02*
X152808628Y-77989999D01*
X153284819Y-78228094D02*
X152284819Y-78228094D01*
X152284819Y-78228094D02*
X152284819Y-77847142D01*
X152284819Y-77847142D02*
X152332438Y-77751904D01*
X152332438Y-77751904D02*
X152380057Y-77704285D01*
X152380057Y-77704285D02*
X152475295Y-77656666D01*
X152475295Y-77656666D02*
X152618152Y-77656666D01*
X152618152Y-77656666D02*
X152713390Y-77704285D01*
X152713390Y-77704285D02*
X152761009Y-77751904D01*
X152761009Y-77751904D02*
X152808628Y-77847142D01*
X152808628Y-77847142D02*
X152808628Y-78228094D01*
X152380057Y-77275713D02*
X152332438Y-77228094D01*
X152332438Y-77228094D02*
X152284819Y-77132856D01*
X152284819Y-77132856D02*
X152284819Y-76894761D01*
X152284819Y-76894761D02*
X152332438Y-76799523D01*
X152332438Y-76799523D02*
X152380057Y-76751904D01*
X152380057Y-76751904D02*
X152475295Y-76704285D01*
X152475295Y-76704285D02*
X152570533Y-76704285D01*
X152570533Y-76704285D02*
X152713390Y-76751904D01*
X152713390Y-76751904D02*
X153284819Y-77323332D01*
X153284819Y-77323332D02*
X153284819Y-76704285D01*
X117803705Y-93952219D02*
X117803705Y-92952219D01*
X117803705Y-92952219D02*
X118041800Y-92952219D01*
X118041800Y-92952219D02*
X118184657Y-92999838D01*
X118184657Y-92999838D02*
X118279895Y-93095076D01*
X118279895Y-93095076D02*
X118327514Y-93190314D01*
X118327514Y-93190314D02*
X118375133Y-93380790D01*
X118375133Y-93380790D02*
X118375133Y-93523647D01*
X118375133Y-93523647D02*
X118327514Y-93714123D01*
X118327514Y-93714123D02*
X118279895Y-93809361D01*
X118279895Y-93809361D02*
X118184657Y-93904600D01*
X118184657Y-93904600D02*
X118041800Y-93952219D01*
X118041800Y-93952219D02*
X117803705Y-93952219D01*
X119327514Y-93952219D02*
X118756086Y-93952219D01*
X119041800Y-93952219D02*
X119041800Y-92952219D01*
X119041800Y-92952219D02*
X118946562Y-93095076D01*
X118946562Y-93095076D02*
X118851324Y-93190314D01*
X118851324Y-93190314D02*
X118756086Y-93237933D01*
X124284819Y-87676666D02*
X123808628Y-88009999D01*
X124284819Y-88248094D02*
X123284819Y-88248094D01*
X123284819Y-88248094D02*
X123284819Y-87867142D01*
X123284819Y-87867142D02*
X123332438Y-87771904D01*
X123332438Y-87771904D02*
X123380057Y-87724285D01*
X123380057Y-87724285D02*
X123475295Y-87676666D01*
X123475295Y-87676666D02*
X123618152Y-87676666D01*
X123618152Y-87676666D02*
X123713390Y-87724285D01*
X123713390Y-87724285D02*
X123761009Y-87771904D01*
X123761009Y-87771904D02*
X123808628Y-87867142D01*
X123808628Y-87867142D02*
X123808628Y-88248094D01*
X123284819Y-87343332D02*
X123284819Y-86724285D01*
X123284819Y-86724285D02*
X123665771Y-87057618D01*
X123665771Y-87057618D02*
X123665771Y-86914761D01*
X123665771Y-86914761D02*
X123713390Y-86819523D01*
X123713390Y-86819523D02*
X123761009Y-86771904D01*
X123761009Y-86771904D02*
X123856247Y-86724285D01*
X123856247Y-86724285D02*
X124094342Y-86724285D01*
X124094342Y-86724285D02*
X124189580Y-86771904D01*
X124189580Y-86771904D02*
X124237200Y-86819523D01*
X124237200Y-86819523D02*
X124284819Y-86914761D01*
X124284819Y-86914761D02*
X124284819Y-87200475D01*
X124284819Y-87200475D02*
X124237200Y-87295713D01*
X124237200Y-87295713D02*
X124189580Y-87343332D01*
X150039580Y-85642857D02*
X150087200Y-85690476D01*
X150087200Y-85690476D02*
X150134819Y-85833333D01*
X150134819Y-85833333D02*
X150134819Y-85928571D01*
X150134819Y-85928571D02*
X150087200Y-86071428D01*
X150087200Y-86071428D02*
X149991961Y-86166666D01*
X149991961Y-86166666D02*
X149896723Y-86214285D01*
X149896723Y-86214285D02*
X149706247Y-86261904D01*
X149706247Y-86261904D02*
X149563390Y-86261904D01*
X149563390Y-86261904D02*
X149372914Y-86214285D01*
X149372914Y-86214285D02*
X149277676Y-86166666D01*
X149277676Y-86166666D02*
X149182438Y-86071428D01*
X149182438Y-86071428D02*
X149134819Y-85928571D01*
X149134819Y-85928571D02*
X149134819Y-85833333D01*
X149134819Y-85833333D02*
X149182438Y-85690476D01*
X149182438Y-85690476D02*
X149230057Y-85642857D01*
X150134819Y-84690476D02*
X150134819Y-85261904D01*
X150134819Y-84976190D02*
X149134819Y-84976190D01*
X149134819Y-84976190D02*
X149277676Y-85071428D01*
X149277676Y-85071428D02*
X149372914Y-85166666D01*
X149372914Y-85166666D02*
X149420533Y-85261904D01*
X149230057Y-84309523D02*
X149182438Y-84261904D01*
X149182438Y-84261904D02*
X149134819Y-84166666D01*
X149134819Y-84166666D02*
X149134819Y-83928571D01*
X149134819Y-83928571D02*
X149182438Y-83833333D01*
X149182438Y-83833333D02*
X149230057Y-83785714D01*
X149230057Y-83785714D02*
X149325295Y-83738095D01*
X149325295Y-83738095D02*
X149420533Y-83738095D01*
X149420533Y-83738095D02*
X149563390Y-83785714D01*
X149563390Y-83785714D02*
X150134819Y-84357142D01*
X150134819Y-84357142D02*
X150134819Y-83738095D01*
X165481419Y-71610733D02*
X166195704Y-71610733D01*
X166195704Y-71610733D02*
X166338561Y-71658352D01*
X166338561Y-71658352D02*
X166433800Y-71753590D01*
X166433800Y-71753590D02*
X166481419Y-71896447D01*
X166481419Y-71896447D02*
X166481419Y-71991685D01*
X166481419Y-70610733D02*
X166481419Y-71182161D01*
X166481419Y-70896447D02*
X165481419Y-70896447D01*
X165481419Y-70896447D02*
X165624276Y-70991685D01*
X165624276Y-70991685D02*
X165719514Y-71086923D01*
X165719514Y-71086923D02*
X165767133Y-71182161D01*
X133323333Y-90454819D02*
X132990000Y-89978628D01*
X132751905Y-90454819D02*
X132751905Y-89454819D01*
X132751905Y-89454819D02*
X133132857Y-89454819D01*
X133132857Y-89454819D02*
X133228095Y-89502438D01*
X133228095Y-89502438D02*
X133275714Y-89550057D01*
X133275714Y-89550057D02*
X133323333Y-89645295D01*
X133323333Y-89645295D02*
X133323333Y-89788152D01*
X133323333Y-89788152D02*
X133275714Y-89883390D01*
X133275714Y-89883390D02*
X133228095Y-89931009D01*
X133228095Y-89931009D02*
X133132857Y-89978628D01*
X133132857Y-89978628D02*
X132751905Y-89978628D01*
X134180476Y-89788152D02*
X134180476Y-90454819D01*
X133942381Y-89407200D02*
X133704286Y-90121485D01*
X133704286Y-90121485D02*
X134323333Y-90121485D01*
X121833333Y-74359580D02*
X121785714Y-74407200D01*
X121785714Y-74407200D02*
X121642857Y-74454819D01*
X121642857Y-74454819D02*
X121547619Y-74454819D01*
X121547619Y-74454819D02*
X121404762Y-74407200D01*
X121404762Y-74407200D02*
X121309524Y-74311961D01*
X121309524Y-74311961D02*
X121261905Y-74216723D01*
X121261905Y-74216723D02*
X121214286Y-74026247D01*
X121214286Y-74026247D02*
X121214286Y-73883390D01*
X121214286Y-73883390D02*
X121261905Y-73692914D01*
X121261905Y-73692914D02*
X121309524Y-73597676D01*
X121309524Y-73597676D02*
X121404762Y-73502438D01*
X121404762Y-73502438D02*
X121547619Y-73454819D01*
X121547619Y-73454819D02*
X121642857Y-73454819D01*
X121642857Y-73454819D02*
X121785714Y-73502438D01*
X121785714Y-73502438D02*
X121833333Y-73550057D01*
X122309524Y-74454819D02*
X122500000Y-74454819D01*
X122500000Y-74454819D02*
X122595238Y-74407200D01*
X122595238Y-74407200D02*
X122642857Y-74359580D01*
X122642857Y-74359580D02*
X122738095Y-74216723D01*
X122738095Y-74216723D02*
X122785714Y-74026247D01*
X122785714Y-74026247D02*
X122785714Y-73645295D01*
X122785714Y-73645295D02*
X122738095Y-73550057D01*
X122738095Y-73550057D02*
X122690476Y-73502438D01*
X122690476Y-73502438D02*
X122595238Y-73454819D01*
X122595238Y-73454819D02*
X122404762Y-73454819D01*
X122404762Y-73454819D02*
X122309524Y-73502438D01*
X122309524Y-73502438D02*
X122261905Y-73550057D01*
X122261905Y-73550057D02*
X122214286Y-73645295D01*
X122214286Y-73645295D02*
X122214286Y-73883390D01*
X122214286Y-73883390D02*
X122261905Y-73978628D01*
X122261905Y-73978628D02*
X122309524Y-74026247D01*
X122309524Y-74026247D02*
X122404762Y-74073866D01*
X122404762Y-74073866D02*
X122595238Y-74073866D01*
X122595238Y-74073866D02*
X122690476Y-74026247D01*
X122690476Y-74026247D02*
X122738095Y-73978628D01*
X122738095Y-73978628D02*
X122785714Y-73883390D01*
X133454819Y-69166666D02*
X132978628Y-69499999D01*
X133454819Y-69738094D02*
X132454819Y-69738094D01*
X132454819Y-69738094D02*
X132454819Y-69357142D01*
X132454819Y-69357142D02*
X132502438Y-69261904D01*
X132502438Y-69261904D02*
X132550057Y-69214285D01*
X132550057Y-69214285D02*
X132645295Y-69166666D01*
X132645295Y-69166666D02*
X132788152Y-69166666D01*
X132788152Y-69166666D02*
X132883390Y-69214285D01*
X132883390Y-69214285D02*
X132931009Y-69261904D01*
X132931009Y-69261904D02*
X132978628Y-69357142D01*
X132978628Y-69357142D02*
X132978628Y-69738094D01*
X133454819Y-68214285D02*
X133454819Y-68785713D01*
X133454819Y-68499999D02*
X132454819Y-68499999D01*
X132454819Y-68499999D02*
X132597676Y-68595237D01*
X132597676Y-68595237D02*
X132692914Y-68690475D01*
X132692914Y-68690475D02*
X132740533Y-68785713D01*
X127833333Y-80519580D02*
X127785714Y-80567200D01*
X127785714Y-80567200D02*
X127642857Y-80614819D01*
X127642857Y-80614819D02*
X127547619Y-80614819D01*
X127547619Y-80614819D02*
X127404762Y-80567200D01*
X127404762Y-80567200D02*
X127309524Y-80471961D01*
X127309524Y-80471961D02*
X127261905Y-80376723D01*
X127261905Y-80376723D02*
X127214286Y-80186247D01*
X127214286Y-80186247D02*
X127214286Y-80043390D01*
X127214286Y-80043390D02*
X127261905Y-79852914D01*
X127261905Y-79852914D02*
X127309524Y-79757676D01*
X127309524Y-79757676D02*
X127404762Y-79662438D01*
X127404762Y-79662438D02*
X127547619Y-79614819D01*
X127547619Y-79614819D02*
X127642857Y-79614819D01*
X127642857Y-79614819D02*
X127785714Y-79662438D01*
X127785714Y-79662438D02*
X127833333Y-79710057D01*
X128404762Y-80043390D02*
X128309524Y-79995771D01*
X128309524Y-79995771D02*
X128261905Y-79948152D01*
X128261905Y-79948152D02*
X128214286Y-79852914D01*
X128214286Y-79852914D02*
X128214286Y-79805295D01*
X128214286Y-79805295D02*
X128261905Y-79710057D01*
X128261905Y-79710057D02*
X128309524Y-79662438D01*
X128309524Y-79662438D02*
X128404762Y-79614819D01*
X128404762Y-79614819D02*
X128595238Y-79614819D01*
X128595238Y-79614819D02*
X128690476Y-79662438D01*
X128690476Y-79662438D02*
X128738095Y-79710057D01*
X128738095Y-79710057D02*
X128785714Y-79805295D01*
X128785714Y-79805295D02*
X128785714Y-79852914D01*
X128785714Y-79852914D02*
X128738095Y-79948152D01*
X128738095Y-79948152D02*
X128690476Y-79995771D01*
X128690476Y-79995771D02*
X128595238Y-80043390D01*
X128595238Y-80043390D02*
X128404762Y-80043390D01*
X128404762Y-80043390D02*
X128309524Y-80091009D01*
X128309524Y-80091009D02*
X128261905Y-80138628D01*
X128261905Y-80138628D02*
X128214286Y-80233866D01*
X128214286Y-80233866D02*
X128214286Y-80424342D01*
X128214286Y-80424342D02*
X128261905Y-80519580D01*
X128261905Y-80519580D02*
X128309524Y-80567200D01*
X128309524Y-80567200D02*
X128404762Y-80614819D01*
X128404762Y-80614819D02*
X128595238Y-80614819D01*
X128595238Y-80614819D02*
X128690476Y-80567200D01*
X128690476Y-80567200D02*
X128738095Y-80519580D01*
X128738095Y-80519580D02*
X128785714Y-80424342D01*
X128785714Y-80424342D02*
X128785714Y-80233866D01*
X128785714Y-80233866D02*
X128738095Y-80138628D01*
X128738095Y-80138628D02*
X128690476Y-80091009D01*
X128690476Y-80091009D02*
X128595238Y-80043390D01*
X123378933Y-69117380D02*
X123331314Y-69165000D01*
X123331314Y-69165000D02*
X123188457Y-69212619D01*
X123188457Y-69212619D02*
X123093219Y-69212619D01*
X123093219Y-69212619D02*
X122950362Y-69165000D01*
X122950362Y-69165000D02*
X122855124Y-69069761D01*
X122855124Y-69069761D02*
X122807505Y-68974523D01*
X122807505Y-68974523D02*
X122759886Y-68784047D01*
X122759886Y-68784047D02*
X122759886Y-68641190D01*
X122759886Y-68641190D02*
X122807505Y-68450714D01*
X122807505Y-68450714D02*
X122855124Y-68355476D01*
X122855124Y-68355476D02*
X122950362Y-68260238D01*
X122950362Y-68260238D02*
X123093219Y-68212619D01*
X123093219Y-68212619D02*
X123188457Y-68212619D01*
X123188457Y-68212619D02*
X123331314Y-68260238D01*
X123331314Y-68260238D02*
X123378933Y-68307857D01*
X123759886Y-68307857D02*
X123807505Y-68260238D01*
X123807505Y-68260238D02*
X123902743Y-68212619D01*
X123902743Y-68212619D02*
X124140838Y-68212619D01*
X124140838Y-68212619D02*
X124236076Y-68260238D01*
X124236076Y-68260238D02*
X124283695Y-68307857D01*
X124283695Y-68307857D02*
X124331314Y-68403095D01*
X124331314Y-68403095D02*
X124331314Y-68498333D01*
X124331314Y-68498333D02*
X124283695Y-68641190D01*
X124283695Y-68641190D02*
X123712267Y-69212619D01*
X123712267Y-69212619D02*
X124331314Y-69212619D01*
X163954819Y-89761904D02*
X164764342Y-89761904D01*
X164764342Y-89761904D02*
X164859580Y-89714285D01*
X164859580Y-89714285D02*
X164907200Y-89666666D01*
X164907200Y-89666666D02*
X164954819Y-89571428D01*
X164954819Y-89571428D02*
X164954819Y-89380952D01*
X164954819Y-89380952D02*
X164907200Y-89285714D01*
X164907200Y-89285714D02*
X164859580Y-89238095D01*
X164859580Y-89238095D02*
X164764342Y-89190476D01*
X164764342Y-89190476D02*
X163954819Y-89190476D01*
X164050057Y-88761904D02*
X164002438Y-88714285D01*
X164002438Y-88714285D02*
X163954819Y-88619047D01*
X163954819Y-88619047D02*
X163954819Y-88380952D01*
X163954819Y-88380952D02*
X164002438Y-88285714D01*
X164002438Y-88285714D02*
X164050057Y-88238095D01*
X164050057Y-88238095D02*
X164145295Y-88190476D01*
X164145295Y-88190476D02*
X164240533Y-88190476D01*
X164240533Y-88190476D02*
X164383390Y-88238095D01*
X164383390Y-88238095D02*
X164954819Y-88809523D01*
X164954819Y-88809523D02*
X164954819Y-88190476D01*
D11*
%TO.C,C1*%
X122107836Y-72640000D02*
X121892164Y-72640000D01*
X122107836Y-73360000D02*
X121892164Y-73360000D01*
%TO.C,J2*%
X149810000Y-66380000D02*
X149810000Y-65000000D01*
X151190000Y-66380000D02*
X149810000Y-66380000D01*
X152460000Y-63620000D02*
X160190000Y-63620000D01*
X152460000Y-66380000D02*
X152460000Y-63620000D01*
X152460000Y-66380000D02*
X160190000Y-66380000D01*
X160190000Y-66380000D02*
X160190000Y-63620000D01*
%TO.C,C7*%
X139892164Y-91640000D02*
X140107836Y-91640000D01*
X139892164Y-92360000D02*
X140107836Y-92360000D01*
%TO.C,C5*%
X128107836Y-83640000D02*
X127892164Y-83640000D01*
X128107836Y-84360000D02*
X127892164Y-84360000D01*
%TO.C,C6*%
X128107836Y-81640000D02*
X127892164Y-81640000D01*
X128107836Y-82360000D02*
X127892164Y-82360000D01*
%TO.C,C3*%
X122107836Y-65640000D02*
X121892164Y-65640000D01*
X122107836Y-66360000D02*
X121892164Y-66360000D01*
%TO.C,FB1*%
X132049721Y-82490000D02*
X132375279Y-82490000D01*
X132049721Y-83510000D02*
X132375279Y-83510000D01*
%TO.C,C4*%
X133490000Y-74365580D02*
X133490000Y-74084420D01*
X134510000Y-74365580D02*
X134510000Y-74084420D01*
%TO.C,C11*%
X149311252Y-89265000D02*
X148788748Y-89265000D01*
X149311252Y-90735000D02*
X148788748Y-90735000D01*
%TO.C,J4*%
X133000000Y-88380000D02*
X133000000Y-87000000D01*
X134380000Y-88380000D02*
X133000000Y-88380000D01*
X135650000Y-85620000D02*
X143380000Y-85620000D01*
X135650000Y-88380000D02*
X135650000Y-85620000D01*
X135650000Y-88380000D02*
X143380000Y-88380000D01*
X143380000Y-88380000D02*
X143380000Y-85620000D01*
%TO.C,R5*%
X136153641Y-91620000D02*
X135846359Y-91620000D01*
X136153641Y-92380000D02*
X135846359Y-92380000D01*
%TO.C,Y1*%
X124060000Y-76290000D02*
X119940000Y-76290000D01*
X124060000Y-79710000D02*
X124060000Y-76290000D01*
%TO.C,SW1*%
X113575500Y-65707200D02*
X113575500Y-66907200D01*
X113575500Y-74907200D02*
X113575500Y-73707200D01*
X117775500Y-65707200D02*
X113575500Y-65707200D01*
X117775500Y-66057200D02*
X117775500Y-65707200D01*
X117775500Y-73707200D02*
X117775500Y-74907200D01*
X117775500Y-74907200D02*
X113575500Y-74907200D01*
X118255500Y-66807200D02*
X117775500Y-66807200D01*
X117775500Y-66327200D01*
X118255500Y-66807200D01*
G36*
X118255500Y-66807200D02*
G01*
X117775500Y-66807200D01*
X117775500Y-66327200D01*
X118255500Y-66807200D01*
G37*
%TO.C,C10*%
X121892164Y-82640000D02*
X122107836Y-82640000D01*
X121892164Y-83360000D02*
X122107836Y-83360000D01*
%TO.C,R2*%
X153620000Y-77643641D02*
X153620000Y-77336359D01*
X154380000Y-77643641D02*
X154380000Y-77336359D01*
%TO.C,D1*%
X120265000Y-89302500D02*
X120265000Y-91587500D01*
X121735000Y-89302500D02*
X120265000Y-89302500D01*
X121735000Y-91587500D02*
X121735000Y-89302500D01*
%TO.C,R3*%
X124620000Y-87663641D02*
X124620000Y-87356359D01*
X125380000Y-87663641D02*
X125380000Y-87356359D01*
%TO.C,C12*%
X147265000Y-84738748D02*
X147265000Y-85261252D01*
X148735000Y-84738748D02*
X148735000Y-85261252D01*
%TO.C,U1*%
X137563200Y-73555200D02*
X137563200Y-74005200D01*
X137563200Y-80775200D02*
X137563200Y-80325200D01*
X138013200Y-73555200D02*
X137563200Y-73555200D01*
X138013200Y-80775200D02*
X137563200Y-80775200D01*
X144333200Y-73555200D02*
X144783200Y-73555200D01*
X144333200Y-80775200D02*
X144783200Y-80775200D01*
X144783200Y-73555200D02*
X144783200Y-74005200D01*
X144783200Y-80775200D02*
X144783200Y-80325200D01*
X136973200Y-74005200D02*
X136633200Y-73535200D01*
X137313200Y-73535200D01*
X136973200Y-74005200D01*
G36*
X136973200Y-74005200D02*
G01*
X136633200Y-73535200D01*
X137313200Y-73535200D01*
X136973200Y-74005200D01*
G37*
D10*
%TO.C,J1*%
X166701600Y-72352400D02*
X166701600Y-73077400D01*
X166701600Y-73077400D02*
X167126600Y-73077400D01*
X167126600Y-69477400D02*
X167126600Y-68477400D01*
X167126600Y-73077400D02*
X167126600Y-74077400D01*
X168876600Y-75427400D02*
X170276600Y-75427400D01*
X170276600Y-67127400D02*
X168876600Y-67127400D01*
X172676600Y-75427400D02*
X172826600Y-75427400D01*
X172826600Y-67127400D02*
X172676600Y-67127400D01*
X172826600Y-67427400D02*
X172826600Y-67127400D01*
X172826600Y-75127400D02*
X173276600Y-75127400D01*
X172826600Y-75427400D02*
X172826600Y-75127400D01*
X173276600Y-67427400D02*
X172826600Y-67427400D01*
D11*
%TO.C,R4*%
X136153641Y-89620000D02*
X135846359Y-89620000D01*
X136153641Y-90380000D02*
X135846359Y-90380000D01*
%TO.C,C9*%
X122107836Y-74640000D02*
X121892164Y-74640000D01*
X122107836Y-75360000D02*
X121892164Y-75360000D01*
%TO.C,R1*%
X133620000Y-68846359D02*
X133620000Y-69153641D01*
X134380000Y-68846359D02*
X134380000Y-69153641D01*
%TO.C,C8*%
X128107836Y-78640000D02*
X127892164Y-78640000D01*
X128107836Y-79360000D02*
X127892164Y-79360000D01*
%TO.C,C2*%
X122107836Y-69640000D02*
X121892164Y-69640000D01*
X122107836Y-70360000D02*
X121892164Y-70360000D01*
%TO.C,J3*%
X135620000Y-63620000D02*
X135620000Y-66380000D01*
X143350000Y-63620000D02*
X135620000Y-63620000D01*
X143350000Y-63620000D02*
X143350000Y-66380000D01*
X143350000Y-66380000D02*
X135620000Y-66380000D01*
X144620000Y-63620000D02*
X146000000Y-63620000D01*
X146000000Y-63620000D02*
X146000000Y-65000000D01*
%TO.C,U2*%
X156590000Y-87150000D02*
X156590000Y-90910000D01*
X156590000Y-90910000D02*
X157850000Y-90910000D01*
X163410000Y-87150000D02*
X163410000Y-90910000D01*
X163410000Y-90910000D02*
X162150000Y-90910000D01*
X163640000Y-86110000D02*
X163310000Y-85870000D01*
X163640000Y-85630000D01*
X163640000Y-86110000D01*
G36*
X163640000Y-86110000D02*
G01*
X163310000Y-85870000D01*
X163640000Y-85630000D01*
X163640000Y-86110000D01*
G37*
%TD*%
M02*
