%TF.GenerationSoftware,KiCad,Pcbnew,9.0.4*%
%TF.CreationDate,2025-09-11T21:53:48-07:00*%
%TF.ProjectId,STM32 PCB design,53544d33-3220-4504-9342-206465736967,rev?*%
%TF.SameCoordinates,Original*%
%TF.FileFunction,Paste,Top*%
%TF.FilePolarity,Positive*%
%FSLAX46Y46*%
G04 Gerber Fmt 4.6, Leading zero omitted, Abs format (unit mm)*
G04 Created by KiCad (PCBNEW 9.0.4) date 2025-09-11 21:53:48*
%MOMM*%
%LPD*%
G01*
G04 APERTURE LIST*
G04 Aperture macros list*
%AMRoundRect*
0 Rectangle with rounded corners*
0 $1 Rounding radius*
0 $2 $3 $4 $5 $6 $7 $8 $9 X,Y pos of 4 corners*
0 Add a 4 corners polygon primitive as box body*
4,1,4,$2,$3,$4,$5,$6,$7,$8,$9,$2,$3,0*
0 Add four circle primitives for the rounded corners*
1,1,$1+$1,$2,$3*
1,1,$1+$1,$4,$5*
1,1,$1+$1,$6,$7*
1,1,$1+$1,$8,$9*
0 Add four rect primitives between the rounded corners*
20,1,$1+$1,$2,$3,$4,$5,0*
20,1,$1+$1,$4,$5,$6,$7,0*
20,1,$1+$1,$6,$7,$8,$9,0*
20,1,$1+$1,$8,$9,$2,$3,0*%
G04 Aperture macros list end*
%ADD10RoundRect,0.140000X0.140000X0.170000X-0.140000X0.170000X-0.140000X-0.170000X0.140000X-0.170000X0*%
%ADD11RoundRect,0.140000X-0.140000X-0.170000X0.140000X-0.170000X0.140000X0.170000X-0.140000X0.170000X0*%
%ADD12RoundRect,0.218750X-0.218750X-0.256250X0.218750X-0.256250X0.218750X0.256250X-0.218750X0.256250X0*%
%ADD13RoundRect,0.225000X0.250000X-0.225000X0.250000X0.225000X-0.250000X0.225000X-0.250000X-0.225000X0*%
%ADD14RoundRect,0.250000X0.250000X0.475000X-0.250000X0.475000X-0.250000X-0.475000X0.250000X-0.475000X0*%
%ADD15RoundRect,0.135000X0.135000X0.185000X-0.135000X0.185000X-0.135000X-0.185000X0.135000X-0.185000X0*%
%ADD16RoundRect,0.250000X0.450000X0.350000X-0.450000X0.350000X-0.450000X-0.350000X0.450000X-0.350000X0*%
%ADD17RoundRect,0.135000X0.185000X-0.135000X0.185000X0.135000X-0.185000X0.135000X-0.185000X-0.135000X0*%
%ADD18RoundRect,0.218750X-0.256250X0.218750X-0.256250X-0.218750X0.256250X-0.218750X0.256250X0.218750X0*%
%ADD19RoundRect,0.250000X-0.475000X0.250000X-0.475000X-0.250000X0.475000X-0.250000X0.475000X0.250000X0*%
%ADD20RoundRect,0.075000X-0.662500X-0.075000X0.662500X-0.075000X0.662500X0.075000X-0.662500X0.075000X0*%
%ADD21RoundRect,0.075000X-0.075000X-0.662500X0.075000X-0.662500X0.075000X0.662500X-0.075000X0.662500X0*%
%ADD22R,1.300000X0.450000*%
%ADD23RoundRect,0.135000X-0.185000X0.135000X-0.185000X-0.135000X0.185000X-0.135000X0.185000X0.135000X0*%
%ADD24RoundRect,0.375000X-0.375000X0.625000X-0.375000X-0.625000X0.375000X-0.625000X0.375000X0.625000X0*%
%ADD25RoundRect,0.500000X-1.400000X0.500000X-1.400000X-0.500000X1.400000X-0.500000X1.400000X0.500000X0*%
G04 APERTURE END LIST*
D10*
%TO.C,C1*%
X122480000Y-73000000D03*
X121520000Y-73000000D03*
%TD*%
D11*
%TO.C,C7*%
X139520000Y-92000000D03*
X140480000Y-92000000D03*
%TD*%
D10*
%TO.C,C5*%
X128480000Y-84000000D03*
X127520000Y-84000000D03*
%TD*%
%TO.C,C6*%
X128480000Y-82000000D03*
X127520000Y-82000000D03*
%TD*%
%TO.C,C3*%
X122480000Y-66000000D03*
X121520000Y-66000000D03*
%TD*%
D12*
%TO.C,FB1*%
X131425000Y-83000000D03*
X133000000Y-83000000D03*
%TD*%
D13*
%TO.C,C4*%
X134000000Y-75000000D03*
X134000000Y-73450000D03*
%TD*%
D14*
%TO.C,C11*%
X150000000Y-90000000D03*
X148100000Y-90000000D03*
%TD*%
D15*
%TO.C,R5*%
X136510000Y-92000000D03*
X135490000Y-92000000D03*
%TD*%
D16*
%TO.C,Y1*%
X123100000Y-77150000D03*
X120900000Y-77150000D03*
X120900000Y-78850000D03*
X123100000Y-78850000D03*
%TD*%
D11*
%TO.C,C10*%
X121520000Y-83000000D03*
X122480000Y-83000000D03*
%TD*%
D17*
%TO.C,R2*%
X154000000Y-78000000D03*
X154000000Y-76980000D03*
%TD*%
D18*
%TO.C,D1*%
X121000000Y-90000000D03*
X121000000Y-91575000D03*
%TD*%
D17*
%TO.C,R3*%
X125000000Y-88020000D03*
X125000000Y-87000000D03*
%TD*%
D19*
%TO.C,C12*%
X148000000Y-84050000D03*
X148000000Y-85950000D03*
%TD*%
D20*
%TO.C,U1*%
X137010700Y-74415200D03*
X137010700Y-74915200D03*
X137010700Y-75415200D03*
X137010700Y-75915200D03*
X137010700Y-76415200D03*
X137010700Y-76915200D03*
X137010700Y-77415200D03*
X137010700Y-77915200D03*
X137010700Y-78415200D03*
X137010700Y-78915200D03*
X137010700Y-79415200D03*
X137010700Y-79915200D03*
D21*
X138423200Y-81327700D03*
X138923200Y-81327700D03*
X139423200Y-81327700D03*
X139923200Y-81327700D03*
X140423200Y-81327700D03*
X140923200Y-81327700D03*
X141423200Y-81327700D03*
X141923200Y-81327700D03*
X142423200Y-81327700D03*
X142923200Y-81327700D03*
X143423200Y-81327700D03*
X143923200Y-81327700D03*
D20*
X145335700Y-79915200D03*
X145335700Y-79415200D03*
X145335700Y-78915200D03*
X145335700Y-78415200D03*
X145335700Y-77915200D03*
X145335700Y-77415200D03*
X145335700Y-76915200D03*
X145335700Y-76415200D03*
X145335700Y-75915200D03*
X145335700Y-75415200D03*
X145335700Y-74915200D03*
X145335700Y-74415200D03*
D21*
X143923200Y-73002700D03*
X143423200Y-73002700D03*
X142923200Y-73002700D03*
X142423200Y-73002700D03*
X141923200Y-73002700D03*
X141423200Y-73002700D03*
X140923200Y-73002700D03*
X140423200Y-73002700D03*
X139923200Y-73002700D03*
X139423200Y-73002700D03*
X138923200Y-73002700D03*
X138423200Y-73002700D03*
%TD*%
D22*
%TO.C,J1*%
X167626600Y-72577400D03*
X167626600Y-71927400D03*
X167626600Y-71277400D03*
X167626600Y-70627400D03*
X167626600Y-69977400D03*
%TD*%
D15*
%TO.C,R4*%
X136510000Y-90000000D03*
X135490000Y-90000000D03*
%TD*%
D10*
%TO.C,C9*%
X122480000Y-75000000D03*
X121520000Y-75000000D03*
%TD*%
D23*
%TO.C,R1*%
X134000000Y-68490000D03*
X134000000Y-69510000D03*
%TD*%
D10*
%TO.C,C8*%
X128480000Y-79000000D03*
X127520000Y-79000000D03*
%TD*%
%TO.C,C2*%
X122480000Y-70000000D03*
X121520000Y-70000000D03*
%TD*%
D24*
%TO.C,U2*%
X162300000Y-85850000D03*
X160000000Y-85850000D03*
D25*
X160000000Y-92150000D03*
D24*
X157700000Y-85850000D03*
%TD*%
M02*
