M48
; DRILL file {KiCad 9.0.4} date 2025-09-11T21:53:44-0700
; FORMAT={-:-/ absolute / metric / decimal}
; #@! TF.CreationDate,2025-09-11T21:53:44-07:00
; #@! TF.GenerationSoftware,Kicad,Pcbnew,9.0.4
; #@! TF.FileFunction,Plated,1,2,PTH
FMAT,2
METRIC
; #@! TA.AperFunction,Plated,PTH,ViaDrill
T1C0.300
; #@! TA.AperFunction,Plated,PTH,ComponentDrill
T2C0.550
; #@! TA.AperFunction,Plated,PTH,ComponentDrill
T3C0.850
; #@! TA.AperFunction,Plated,PTH,ComponentDrill
T4C0.900
; #@! TA.AperFunction,Plated,PTH,ComponentDrill
T5C1.000
%
G90
G05
T1
X120.117Y-75.26
X120.472Y-73.508
X120.955Y-70.891
X121.031Y-66.827
X123.139Y-80.315
X123.622Y-82.982
X124.714Y-84.607
X126.644Y-79.654
X127.33Y-82.779
X128.549Y-80.316
X132.512Y-73.431
X134.899Y-81.716
X135.281Y-78.257
X138.455Y-71.298
X141.783Y-92.075
X144.145Y-84.125
X147.193Y-74.27
X147.32Y-67.742
X147.331Y-64.999
X147.65Y-91.948
X157.0Y-81.128
X158.648Y-81.204
X158.648Y-81.204
X159.385Y-69.24
X162.611Y-83.922
T4
X114.025Y-67.807
X114.025Y-70.307
X114.025Y-72.807
X117.325Y-67.807
X117.325Y-70.307
X117.325Y-72.807
T5
X134.38Y-87.0
X136.92Y-87.0
X137.0Y-65.0
X139.46Y-87.0
X139.54Y-65.0
X142.0Y-87.0
X142.08Y-65.0
X144.62Y-65.0
X151.19Y-65.0
X153.73Y-65.0
X156.27Y-65.0
X158.81Y-65.0
T2
X171.152Y-67.402G85X171.802Y-67.402
G05
X171.152Y-75.152G85X171.802Y-75.152
G05
T3
X167.402Y-67.552G85X167.952Y-67.552
G05
X167.402Y-75.002G85X167.952Y-75.002
G05
M30
